<?xml version="1.0" standalone="no"?>
<!DOCTYPE svg PUBLIC "-//W3C//DTD SVG 20010904//EN"
 "http://www.w3.org/TR/2001/REC-SVG-20010904/DTD/svg10.dtd">
<svg version="1.0" xmlns="http://www.w3.org/2000/svg"
 width="500.000000pt" height="500.000000pt" viewBox="0 0 500.000000 500.000000"
 preserveAspectRatio="xMidYMid meet">

<g transform="translate(0.000000,500.000000) scale(0.100000,-0.100000)"
fill="#000000" stroke="none">
<path d="M2465 3563 c-16 -8 -41 -26 -55 -38 -56 -50 -110 -75 -225 -104 -260
-66 -376 -160 -377 -306 -1 -72 32 -122 113 -175 51 -33 86 -45 186 -66 20 -4
21 -5 7 -51 -14 -46 -19 -207 -8 -237 5 -14 9 -14 37 0 192 100 452 110 635
24 35 -16 66 -30 69 -30 3 0 2 59 -2 130 l-7 130 55 0 c180 0 297 89 297 225
0 105 -100 205 -253 254 -25 9 -52 30 -80 64 -120 147 -197 197 -302 197 -35
-1 -73 -7 -90 -17z m185 -81 c19 -9 80 -62 136 -118 88 -89 113 -108 199 -150
106 -52 132 -78 142 -137 8 -54 -29 -107 -102 -142 -45 -22 -74 -29 -149 -33
l-94 -5 5 -96 c5 -119 0 -130 -55 -102 -146 75 -321 80 -519 16 -20 -6 -23 -4
-23 22 0 32 27 133 39 146 15 16 170 38 266 38 89 0 165 -12 229 -37 14 -5 17
-3 14 7 -7 21 -103 66 -178 83 -81 20 -178 23 -340 12 -105 -7 -135 -6 -182 8
-96 27 -156 94 -139 154 24 83 72 115 268 180 160 54 251 95 301 137 55 46
107 51 182 17z"/>
<path d="M1715 2101 l-89 -6 -7 -35 c-4 -19 -11 -101 -15 -182 l-7 -148 44 0
c24 0 81 3 127 7 l82 6 0 43 0 44 -75 0 c-68 0 -75 2 -75 19 0 16 9 21 48 26
82 11 84 13 79 53 l-3 37 -62 -3 c-51 -3 -62 -1 -62 11 0 23 18 31 88 38 35 4
65 9 69 12 3 4 6 23 7 44 1 44 3 44 -149 34z"/>
<path d="M1955 2096 l-70 -11 0 -50 c0 -28 4 -49 10 -49 6 1 30 5 54 9 l44 7
-45 -63 c-85 -120 -98 -166 -53 -195 20 -13 40 -16 93 -11 37 3 79 10 95 16
24 9 27 15 27 57 0 46 0 46 -30 40 -16 -3 -44 -9 -61 -12 l-31 -7 66 99 c75
112 84 152 41 172 -30 14 -44 13 -140 -2z"/>
<path d="M2395 2098 c-65 -36 -115 -127 -115 -211 0 -51 30 -119 61 -141 50
-34 127 -13 173 47 31 40 32 49 8 70 -25 22 -39 21 -47 -3 -4 -11 -17 -28 -31
-36 -37 -25 -54 -4 -54 65 0 65 30 141 55 141 14 0 16 -7 10 -40 l-7 -40 51 0
51 0 0 46 c0 25 -5 54 -10 65 -22 41 -101 62 -145 37z"/>
<path d="M2586 2098 c-3 -7 -7 -62 -10 -123 -4 -60 -9 -141 -13 -178 l-6 -68
54 3 54 3 5 70 c5 70 5 70 36 73 l30 3 0 -73 -1 -73 46 -3 47 -3 6 133 c4 73
8 158 9 188 l2 55 -46 3 -47 3 -7 -70 -7 -71 -35 0 -34 0 3 68 3 67 -43 3
c-28 2 -44 -1 -46 -10z"/>
<path d="M2965 2101 l-89 -6 -7 -35 c-4 -19 -11 -101 -15 -182 l-7 -148 44 0
c24 0 81 3 127 7 l82 6 0 43 0 44 -75 0 c-68 0 -75 2 -75 19 0 16 9 21 48 26
82 11 84 13 79 53 l-3 37 -62 -3 c-51 -3 -62 -1 -62 11 0 23 18 31 88 38 35 4
65 9 69 12 3 4 6 23 7 44 1 44 3 44 -149 34z"/>
<path d="M3246 2100 l-100 -5 -8 -30 c-4 -16 -10 -98 -14 -182 l-7 -153 46 0
47 0 0 55 c0 62 1 62 76 73 l49 7 0 40 0 40 -57 -3 -58 -2 0 29 c0 32 2 33
103 46 l48 6 -3 41 c-2 23 -7 42 -13 43 -5 0 -55 -2 -109 -5z"/>
</g>
</svg>
